<svg width="632" height="932" viewBox="0 0 632 932" fill="none" xmlns="http://www.w3.org/2000/svg">
<ellipse cx="316.68" cy="847.145" rx="77.5076" ry="84.3065" fill="#F6E130"/>
<ellipse cx="316" cy="560.91" rx="227.764" ry="314.79" fill="#FECD07"/>
<ellipse cx="395.07" cy="670.165" rx="106.359" ry="153.63" transform="rotate(10 395.07 670.165)" fill="#FFD423"/>
<ellipse cx="183.394" cy="651.642" rx="62.9671" ry="132.666" transform="rotate(-15 183.394 651.642)" fill="#FFD426"/>
<path d="M420.727 74.8968C399.787 140.194 406.33 238.916 412.22 280.115H316.68V0.271868C360.087 -2.06016 441.667 9.59998 420.727 74.8968Z" fill="#EC6726"/>
<path d="M213.95 74.8968C234.626 140.194 228.165 238.916 222.35 280.115H316.68V0.271868C273.822 -2.06016 193.275 9.59998 213.95 74.8968Z" fill="#EC6726"/>
<ellipse cx="316" cy="344.705" rx="151.616" ry="163.854" fill="#FBE12A"/>
<circle cx="316.68" cy="265.158" r="57.1109" fill="#F9E850"/>
<ellipse rx="16.8994" ry="36.3975" transform="matrix(-0.915737 0.401778 0.401778 0.915737 413.408 276.722)" fill="#5B5B5B"/>
<ellipse cx="220.319" cy="276.723" rx="16.8994" ry="36.3975" transform="rotate(23.6894 220.319 276.723)" fill="#5B5B5B"/>
</svg>
