<svg width="424" height="415" viewBox="0 0 424 415" fill="none" xmlns="http://www.w3.org/2000/svg">
<path d="M419.233 330.272C445.733 430.772 353.733 427.272 311.733 394.272C298.943 388.101 286.102 372.691 273.443 352.272C258.54 353.439 225.733 352.972 213.733 341.772C201.733 330.572 240.121 329.439 260.815 330.272C221.75 257.543 185.206 149.784 158.233 135.772C117.567 135.772 29.4333 128.672 2.23333 100.272C-12.6115 84.7725 49.9 63.4389 90.7333 62.7723C85.5667 53.2723 76.1333 28.4723 79.7333 5.27226C84.2333 -23.7277 159.233 74.4687 168.233 115.772C209.618 136.787 275.511 175.572 329.733 219.643C328.567 202.519 331.133 167.172 350.733 162.772C370.333 158.372 374.602 225.939 374.286 260.272C396.69 283.752 413.264 307.635 419.233 330.272Z" fill="#0099BB"/>
</svg>
