<svg width="424" height="295" viewBox="0 0 424 295" fill="none" xmlns="http://www.w3.org/2000/svg">
<path d="M422.409 227.289C434.909 326.789 322.909 296.289 303.909 261.789C297.092 249.411 295.682 228.023 287.532 203.79C238.324 217.457 177.409 221.29 179.909 203.79C208.409 168.29 248.262 159.457 262.439 157.79C237.864 127.831 193.654 99.1303 109.909 81.7892C62.4088 111.788 -11.091 89.2901 1.40902 69.7901C11.409 54.1901 37.2423 54.2901 48.9089 56.2901C28.4089 38.1234 -6.09082 0.790087 28.4089 0.790098C61.2187 0.790108 96.4089 43.1228 109.909 64.7892C109.909 64.7892 215.375 44.8364 303.909 75.2222C303.909 53.5781 305.309 8.3901 310.909 0.790098C316.509 -6.8099 347.243 42.2901 361.909 67.7901C364.614 74.3142 368.353 90.8047 362.767 106.557C364.165 107.668 365.546 108.804 366.909 109.965C396.829 135.436 418.297 172.84 422.409 227.289Z" fill="#0099BB"/>
</svg>
