<svg width="346" height="402" viewBox="0 0 346 402" fill="none" xmlns="http://www.w3.org/2000/svg">
<path d="M302.379 4.51982C337.212 19.1865 383.5 106 291.879 131.02C269.5 137.131 269.041 129.965 238.378 138.33C246.545 158.393 254.878 208.12 222.878 246.52C200.878 232.02 189.878 197.52 194.378 155.877C155.117 177.128 114.336 216.428 93.8788 289.018C100.045 322.185 102.579 391.02 63.3788 401.02C48.3784 408.02 45.3784 371.02 59.3784 351.02C44.3783 360.686 9.2786 379.02 0.878603 365.02C-7.5214 351.02 46.3787 308.518 74.3788 289.018C77.4487 225.01 87.4454 152.098 115.11 95.5198C98.8784 95.5198 67.3784 99.5198 49.3784 76.5198C72.5784 43.3198 127.712 39.6226 152.378 41.924C186.285 8.21837 234.372 -8.74519 302.379 4.51982Z" fill="#0099BB"/>
</svg>
