<svg width="217" height="491" viewBox="0 0 217 491" fill="none" xmlns="http://www.w3.org/2000/svg">
<path d="M187.758 0C69.7578 20.5002 38.7578 291.5 51.2577 387L2.75781 476.5C34.3578 496.5 60.5911 490.167 69.7578 484.5V409C157.091 263.167 270.758 29.5002 187.758 0Z" fill="#0099BB"/>
<path d="M1.75738 163C19.3574 146.6 63.424 143.5 83.2574 144L164.757 172.5C103.091 176.167 -15.8426 179.4 1.75738 163Z" fill="#0099BB"/>
<path d="M210.758 254C223.758 219 193.258 181 178.258 172C178.258 172 145.258 145.5 161.758 185.5C178.257 225.5 198.257 269 210.758 254Z" fill="#0099BB"/>
</svg>
