<svg width="196" height="439" viewBox="0 0 196 439" fill="none" xmlns="http://www.w3.org/2000/svg">
<path d="M116.237 393.72C93.2367 459.22 -6.26329 451.72 3.23671 373.72C5.38306 356.097 12.0214 337.581 21.2546 318.72C11.0821 301.387 -6.86285 266.32 2.73715 264.72C12.3371 263.12 28.6715 282.387 35.6387 292.22C68.91 235.775 117.189 178.535 131.237 134.72C102.904 91.3867 76.2373 1.7202 91.2373 0.220203C127.237 -3.3798 152.904 38.0534 161.237 59.22C171.404 27.72 195.737 15.7202 195.737 26.22C198.937 75.42 167.737 119.053 151.737 134.72C156.324 171.743 151.894 243.333 140.275 306.72C151.762 299.387 178.237 287.92 192.237 300.72C200.737 308.491 155.612 344.387 128.549 358.22C124.818 371.421 120.706 383.449 116.237 393.72Z" fill="#0099BB"/>
</svg>
