<svg width="1000" height="1000" viewBox="0 0 1000 1000" fill="none" xmlns="http://www.w3.org/2000/svg">
<g clip-path="url(#clip0_4_623)">
<ellipse cx="500.137" cy="713.194" rx="82.8469" ry="213.006" fill="#EFA0B8"/>
<ellipse rx="82.9641" ry="212.706" transform="matrix(0.706108 -0.708104 0.706108 0.708104 650.33 650.806)" fill="#EF94B0"/>
<ellipse cx="712.595" cy="500.063" rx="83.0811" ry="212.405" transform="rotate(-90 712.595 500.063)" fill="#EFA0B8"/>
<ellipse rx="82.9641" ry="212.706" transform="matrix(-0.706108 -0.708104 0.706108 -0.708104 650.382 349.446)" fill="#EF94B0"/>
<ellipse cx="500.064" cy="287.006" rx="82.8469" ry="213.006" transform="rotate(-180 500.064 287.006)" fill="#EFA0B8"/>
<ellipse rx="82.9641" ry="212.706" transform="matrix(-0.706108 0.708104 -0.706108 -0.708104 349.871 349.394)" fill="#EF94B0"/>
<ellipse cx="287.606" cy="500.137" rx="83.0811" ry="212.405" transform="rotate(90 287.606 500.137)" fill="#EFA0B8"/>
<ellipse rx="82.9641" ry="212.706" transform="matrix(0.706108 0.708104 -0.706108 0.708104 349.819 650.755)" fill="#EF94B0"/>
<ellipse cx="587.219" cy="688.102" rx="103" ry="208" transform="rotate(-25 587.219 688.102)" fill="#EF88A7"/>
<ellipse cx="694.77" cy="570.73" rx="103" ry="208" transform="rotate(-70 694.77 570.73)" fill="#EF7C9F"/>
<ellipse cx="687.835" cy="411.877" rx="103" ry="208" transform="rotate(-115 687.835 411.877)" fill="#EF88A7"/>
<ellipse cx="570.698" cy="304.541" rx="103" ry="208" transform="rotate(-160 570.698 304.541)" fill="#EF7C9F"/>
<ellipse cx="411.847" cy="311.476" rx="103" ry="208" transform="rotate(155 411.847 311.476)" fill="#EF88A7"/>
<ellipse cx="304.51" cy="428.614" rx="103" ry="208" transform="rotate(110 304.51 428.614)" fill="#EF7C9F"/>
<ellipse cx="311.445" cy="587.466" rx="103" ry="208" transform="rotate(65 311.445 587.466)" fill="#EF88A7"/>
<ellipse cx="428.582" cy="694.802" rx="103" ry="208" transform="rotate(20 428.582 694.802)" fill="#EF7C9F"/>
<ellipse cx="500.023" cy="641.032" rx="103" ry="141" fill="#EF7197"/>
<ellipse cx="599.725" cy="599.734" rx="103" ry="141" transform="rotate(-45 599.725 599.734)" fill="#EF648E"/>
<ellipse cx="641.032" cy="500.009" rx="103" ry="141" transform="rotate(-90 641.032 500.009)" fill="#EF7197"/>
<ellipse cx="599.734" cy="400.307" rx="103" ry="141" transform="rotate(-135 599.734 400.307)" fill="#EF648E"/>
<ellipse cx="500.01" cy="359" rx="103" ry="141" transform="rotate(-180 500.01 359)" fill="#EF7197"/>
<ellipse cx="400.308" cy="400.298" rx="103" ry="141" transform="rotate(135 400.308 400.298)" fill="#EF648E"/>
<ellipse cx="359" cy="500.023" rx="103" ry="141" transform="rotate(90 359 500.023)" fill="#EF7197"/>
<ellipse cx="400.298" cy="599.724" rx="103" ry="141" transform="rotate(45 400.298 599.724)" fill="#EF648E"/>
<path d="M495.023 429.005C496.862 425.306 502.138 425.306 503.977 429.005L509.216 439.542C510.622 442.37 514.267 443.202 516.761 441.264L526.053 434.043C529.315 431.509 534.068 433.798 534.121 437.928L534.269 449.695C534.309 452.854 537.231 455.184 540.32 454.52L551.824 452.047C555.862 451.178 559.152 455.303 557.407 459.047L552.435 469.713C551.101 472.576 552.723 475.944 555.793 476.686L567.232 479.448C571.247 480.418 572.421 485.562 569.224 488.178L560.117 495.63C557.673 497.631 557.673 501.369 560.117 503.37L569.224 510.822C572.421 513.438 571.247 518.582 567.232 519.552L555.793 522.314C552.723 523.056 551.101 526.424 552.435 529.287L557.407 539.953C559.152 543.697 555.862 547.822 551.824 546.953L540.32 544.48C537.231 543.816 534.309 546.146 534.269 549.305L534.121 561.072C534.068 565.202 529.315 567.491 526.053 564.957L516.761 557.736C514.267 555.798 510.622 556.63 509.216 559.458L503.977 569.995C502.138 573.694 496.862 573.694 495.023 569.995L489.784 559.458C488.378 556.63 484.733 555.798 482.239 557.736L472.947 564.957C469.685 567.491 464.932 565.202 464.879 561.072L464.731 549.305C464.691 546.146 461.769 543.816 458.68 544.48L447.176 546.953C443.138 547.822 439.848 543.697 441.593 539.953L446.565 529.287C447.899 526.424 446.277 523.056 443.207 522.314L431.768 519.552C427.753 518.582 426.579 513.438 429.776 510.822L438.883 503.37C441.327 501.369 441.327 497.631 438.883 495.63L429.776 488.178C426.579 485.562 427.753 480.418 431.768 479.448L443.207 476.686C446.277 475.944 447.899 472.576 446.565 469.713L441.593 459.047C439.848 455.303 443.138 451.178 447.176 452.047L458.68 454.52C461.769 455.184 464.691 452.854 464.731 449.695L464.879 437.928C464.932 433.798 469.685 431.509 472.947 434.043L482.239 441.264C484.733 443.202 488.378 442.37 489.784 439.542L495.023 429.005Z" fill="#FECD07"/>
</g>
<defs>
<clipPath id="clip0_4_623">
<rect width="1000" height="1000" fill="white"/>
</clipPath>
</defs>
</svg>
