<svg width="1000" height="1000" viewBox="0 0 1000 1000" fill="none" xmlns="http://www.w3.org/2000/svg">
<path d="M499.659 72C533.396 72 638.704 324 499.659 500C360.613 324 465.921 72 499.659 72Z" fill="#FC90B1"/>
<path d="M129 286C145.869 256.782 416.761 291.583 499.659 500C277.716 532.417 112.131 315.218 129 286Z" fill="#EF88A7"/>
<path d="M129 714C112.131 684.782 277.716 467.583 499.659 500C416.761 708.417 145.869 743.218 129 714Z" fill="#FC90B1"/>
<path d="M499.659 928C465.921 928 360.613 676 499.659 500C638.704 676 533.396 928 499.659 928Z" fill="#EF88A7"/>
<path d="M870.317 714C853.449 743.218 582.556 708.417 499.659 500C721.602 467.583 887.186 684.782 870.317 714Z" fill="#FC90B1"/>
<path d="M870.317 286C887.186 315.218 721.602 532.417 499.659 500C582.556 291.583 853.449 256.782 870.317 286Z" fill="#EF88A7"/>
<path d="M499.659 500C639.159 617.5 806.659 518 806.659 500C806.659 482.001 639.159 382 499.659 500Z" fill="#FF6B98"/>
<path d="M499.754 500.055C670.013 437.798 668.185 243.961 652.754 235.051C637.322 226.142 468.111 321.23 499.754 500.055Z" fill="#EF648E"/>
<path d="M499.754 499.945C530.967 321.368 362.185 226.032 346.754 234.941C331.322 243.851 329.065 437.936 499.754 499.945Z" fill="#FF6B98"/>
<path d="M499.659 499.89C360.613 383.57 193.659 482.071 193.659 499.89C193.659 517.709 360.613 616.706 499.659 499.89Z" fill="#EF648E"/>
<path d="M499.564 499.945C329.305 562.202 331.132 756.039 346.564 764.949C361.996 773.858 531.206 678.77 499.564 499.945Z" fill="#FF6B98"/>
<path d="M499.564 500.055C468.35 678.632 637.132 773.968 652.564 765.059C667.996 756.149 670.252 562.064 499.564 500.055Z" fill="#EF648E"/>
<circle cx="463.979" cy="464.321" r="7.48113" fill="#FECD07"/>
<circle cx="481.819" cy="464.321" r="7.48113" fill="#FECD07"/>
<circle cx="499.659" cy="464.321" r="7.48113" fill="#FECD07"/>
<circle cx="517.498" cy="464.321" r="7.48113" fill="#FECD07"/>
<circle cx="481.819" cy="446.481" r="7.48113" fill="#FECD07"/>
<circle cx="499.659" cy="446.481" r="7.48113" fill="#FECD07"/>
<circle cx="517.498" cy="446.481" r="7.48113" fill="#FECD07"/>
<circle cx="481.819" cy="553.519" r="7.48113" fill="#FECD07"/>
<circle cx="499.659" cy="553.519" r="7.48113" fill="#FECD07"/>
<circle cx="517.498" cy="553.519" r="7.48113" fill="#FECD07"/>
<circle cx="535.338" cy="464.321" r="7.48113" fill="#FECD07"/>
<circle cx="499.659" cy="482.16" r="7.48113" fill="#FECD07"/>
<circle cx="517.498" cy="482.16" r="7.48113" fill="#FECD07"/>
<circle cx="481.819" cy="482.16" r="7.48113" fill="#FECD07"/>
<circle cx="535.338" cy="482.16" r="7.48113" fill="#FECD07"/>
<circle cx="499.659" cy="500" r="7.48113" fill="#FECD07"/>
<circle cx="517.498" cy="500" r="7.48113" fill="#FECD07"/>
<circle cx="481.819" cy="500" r="7.48113" fill="#FECD07"/>
<circle cx="535.338" cy="500" r="7.48113" fill="#FECD07"/>
<circle cx="499.659" cy="517.84" r="7.48113" fill="#FECD07"/>
<circle cx="517.498" cy="517.84" r="7.48113" fill="#FECD07"/>
<circle cx="481.819" cy="517.84" r="7.48113" fill="#FECD07"/>
<circle cx="535.338" cy="517.84" r="7.48113" fill="#FECD07"/>
<circle cx="499.659" cy="535.679" r="7.48113" fill="#FECD07"/>
<circle cx="517.498" cy="535.679" r="7.48113" fill="#FECD07"/>
<circle cx="481.819" cy="535.679" r="7.48113" fill="#FECD07"/>
<circle cx="463.979" cy="482.16" r="7.48113" fill="#FECD07"/>
<circle cx="463.979" cy="500" r="7.48113" fill="#FECD07"/>
<circle cx="463.979" cy="517.84" r="7.48113" fill="#FECD07"/>
<circle cx="463.979" cy="535.679" r="7.48113" fill="#FECD07"/>
<circle cx="535.338" cy="535.679" r="7.48113" fill="#FECD07"/>
<circle cx="553.178" cy="517.84" r="7.48113" fill="#FECD07"/>
<circle cx="553.178" cy="500" r="7.48113" fill="#FECD07"/>
<circle cx="553.178" cy="482.16" r="7.48113" fill="#FECD07"/>
<circle cx="446.14" cy="517.84" r="7.48113" fill="#FECD07"/>
<circle cx="446.14" cy="500" r="7.48113" fill="#FECD07"/>
<circle cx="446.14" cy="482.16" r="7.48113" fill="#FECD07"/>
</svg>
