<svg width="324" height="441" viewBox="0 0 324 441" fill="none" xmlns="http://www.w3.org/2000/svg">
<path d="M307.399 153.402C307.399 175.637 286.669 190.7 276.305 195.453L240.691 150.515L274.497 107.562C282.162 111.749 284.741 120.376 284.982 124.346C285.223 128.317 307.399 127.234 307.399 153.402Z" fill="#476A15"/>
<path d="M243.584 56.8491C224.964 28.1538 195.076 0.112672 161.87 0C161.871 6.19606e-06 161.871 440.355 161.87 440.355C224.78 438.731 313.545 359.503 322.22 288.216C329.451 257.716 296.552 257.535 296.552 241.112C296.552 227.577 278.797 227.577 278.421 213.319C278.327 209.752 278.92 196.063 278.063 193.106C273.115 176.023 257.682 167.811 257.682 153.041C257.682 144.396 277.535 132.514 278.421 108.464C278.719 100.385 281.48 86.6849 276.025 75.5209C262.286 56.6023 252.442 64.9704 243.584 56.8491Z" fill="#6DA917"/>
<path d="M247.922 89.8757C247.922 116.389 237.647 138.423 215.382 138.423C193.118 138.423 173.442 110.433 173.442 83.9201C173.442 57.4072 190.225 45.2988 212.49 45.2988C234.754 45.2988 247.922 63.3628 247.922 89.8757Z" fill="#476A15"/>
<path d="M245.017 70.1112C216.951 57.3182 189.63 64.5961 174.649 72.4476C178.869 53.8909 193.735 45.2988 212.49 45.2988C228.629 45.2988 239.988 54.7903 245.017 70.1112Z" fill="#D1D1D1"/>
<path d="M232.733 51.8147C212.365 53.2644 203.545 50.1197 200.408 46.6407C204.183 45.7408 208.236 45.2988 212.49 45.2988C220.468 45.2988 227.278 47.6182 232.733 51.8147Z" fill="black"/>
<ellipse cx="193.689" cy="348.313" rx="12.2929" ry="13.8964" fill="#E8F500"/>
<ellipse cx="195.316" cy="269.086" rx="17.1739" ry="16.9645" fill="#E8F500"/>
<ellipse cx="195.316" cy="190.76" rx="17.1739" ry="18.7692" fill="#E8F500"/>
<path d="M247.922 266.559C247.922 316.55 227.748 381.16 183.927 424.473" stroke="#354F10" stroke-width="5" stroke-linecap="round"/>
<path d="M246.476 179.391C242.8 186.248 241.776 197.257 246.476 208.447C251.585 220.61 249.429 233.833 246.476 238.766" stroke="#354F10" stroke-width="5" stroke-linecap="round"/>
<path d="M16.7815 153.402C16.7815 175.637 37.5107 190.7 47.8754 195.453L83.4886 150.515L49.6831 107.562C42.0181 111.749 39.439 120.376 39.198 124.346C38.957 128.317 16.7815 127.234 16.7815 153.402Z" fill="#476A15"/>
<path d="M80.5962 56.8491C99.2164 28.1538 129.104 0.112672 162.311 0C162.309 6.19606e-06 162.31 440.355 162.311 440.355C99.3998 438.731 10.6351 359.503 1.9604 288.216C-5.27072 257.716 27.6283 257.535 27.6283 241.112C27.6283 227.577 45.3831 227.577 45.759 213.319C45.853 209.752 45.2605 196.063 46.1167 193.106C51.065 176.023 66.4982 167.811 66.4982 153.041C66.4982 144.396 46.6451 132.514 45.759 108.464C45.4613 100.385 42.7 86.6849 48.155 75.5209C61.8941 56.6023 71.7381 64.9704 80.5962 56.8491Z" fill="#69A119"/>
<path d="M76.2576 89.8757C76.2576 116.389 86.5331 138.423 108.798 138.423C131.062 138.423 150.738 110.433 150.738 83.9201C150.738 57.4072 133.955 45.2988 111.69 45.2988C89.4256 45.2988 76.2576 63.3628 76.2576 89.8757Z" fill="#476A15"/>
<path d="M79.1631 70.1112C107.229 57.3182 134.55 64.5961 149.531 72.4476C145.311 53.8909 130.445 45.2988 111.69 45.2988C95.5512 45.2988 84.192 54.7903 79.1631 70.1112Z" fill="#D1D1D1"/>
<path d="M91.4473 51.8147C111.815 53.2644 120.635 50.1197 123.772 46.6407C119.997 45.7408 115.944 45.2988 111.69 45.2988C103.712 45.2988 96.902 47.6182 91.4473 51.8147Z" fill="black"/>
<ellipse rx="12.2929" ry="13.8964" transform="matrix(-1 0 0 1 130.491 348.313)" fill="#CFD90A"/>
<ellipse rx="17.1739" ry="16.9645" transform="matrix(-1 0 0 1 128.864 269.086)" fill="#CFD90A"/>
<ellipse rx="17.1739" ry="18.7692" transform="matrix(-1 0 0 1 128.864 190.76)" fill="#DCE711"/>
<path d="M76.2576 266.559C76.2576 316.55 96.4325 381.16 140.253 424.473" stroke="#354F10" stroke-width="5" stroke-linecap="round"/>
<path d="M77.7039 179.391C81.3797 186.248 82.4042 197.257 77.7039 208.447C72.5947 220.61 74.7512 233.833 77.7039 238.766" stroke="#354F10" stroke-width="5" stroke-linecap="round"/>
</svg>
