<svg width="921" height="922" viewBox="0 0 921 922" fill="none" xmlns="http://www.w3.org/2000/svg">
<path fill-rule="evenodd" clip-rule="evenodd" d="M180.279 304.377C103.039 449.788 148.209 634.78 273.808 741.154C365.896 819.147 490.256 784.744 600.137 728.591L524.944 526.895C522.638 520.709 529.391 515.062 535.071 518.426L734.351 636.458C789.733 580.291 823.417 508.465 811.986 428.224C793.948 301.6 699.877 199.933 574.367 175.327C424.432 145.932 251.973 169.408 180.279 304.377Z" fill="#7FD63C"/>
<path d="M458.201 436.523L617.091 489.56" stroke="#71BD35" stroke-width="12" stroke-linecap="round"/>
<path d="M458.201 436.523L546.201 282.84" stroke="#71BD35" stroke-width="12" stroke-linecap="round"/>
<path d="M458.201 436.523L353.698 288.504" stroke="#71BD35" stroke-width="12" stroke-linecap="round"/>
<path d="M458.201 436.523L305.615 498.726" stroke="#71BD35" stroke-width="12" stroke-linecap="round"/>
<path d="M458.201 436.523L468.4 622.986" stroke="#71BD35" stroke-width="12" stroke-linecap="round"/>
<circle cx="460.613" cy="440.316" r="64.8502" transform="rotate(-24.4554 460.613 440.316)" fill="#7FD63C"/>
</svg>
