<svg width="567" height="566" viewBox="0 0 567 566" fill="none" xmlns="http://www.w3.org/2000/svg">
<path fill-rule="evenodd" clip-rule="evenodd" d="M509.905 234.958C476.608 140.865 390.027 79.3049 290.256 76.5058C180.222 73.4187 61.4131 116.242 29.092 221.468C4.14673 302.681 52.5543 375.88 116.991 433.8L252.566 332.446C257.339 328.877 263.833 333.698 261.798 339.3L203.887 498.755C282.488 547.399 374.411 576.7 448.806 524.551C538.12 461.945 546.291 337.781 509.905 234.958Z" fill="#AED63C"/>
<path d="M294.241 283.442L297.062 440.944" stroke="#99BD35" stroke-width="12" stroke-linecap="round"/>
<path d="M294.241 283.442L444.906 329.43" stroke="#99BD35" stroke-width="12" stroke-linecap="round"/>
<path d="M294.241 283.442L384.536 154.362" stroke="#99BD35" stroke-width="12" stroke-linecap="round"/>
<path d="M294.241 283.442L199.381 157.679" stroke="#99BD35" stroke-width="12" stroke-linecap="round"/>
<path d="M294.241 283.442L145.319 334.796" stroke="#99BD35" stroke-width="12" stroke-linecap="round"/>
<circle cx="293.81" cy="283.897" r="27.3887" transform="rotate(35.0371 293.81 283.897)" fill="#AED63C"/>
</svg>
