<svg width="427" height="456" viewBox="0 0 427 456" fill="none" xmlns="http://www.w3.org/2000/svg">
<path fill-rule="evenodd" clip-rule="evenodd" d="M39.1109 272.07C70.3156 366.462 146.733 453.602 245.868 445.463C327.572 438.755 366.196 356.733 387.894 275.23L283.526 231.541C277.437 228.992 277.937 220.204 284.276 218.362L401.497 184.301C400.042 130.443 379.042 79.771 333.45 48.2982C267.133 2.51831 178.89 0.0365682 114.738 48.8081C45.5628 101.399 11.845 189.594 39.1109 272.07Z" fill="#AED63C"/>
<path d="M204.744 214.495L203.317 105.664" stroke="#99BD35" stroke-width="12" stroke-linecap="round"/>
<path d="M204.744 214.495L91.6326 193.355" stroke="#99BD35" stroke-width="12" stroke-linecap="round"/>
<path d="M204.744 214.495L136.264 310.261" stroke="#99BD35" stroke-width="12" stroke-linecap="round"/>
<path d="M204.744 214.495L275.532 294.82" stroke="#99BD35" stroke-width="12" stroke-linecap="round"/>
<path d="M204.744 214.495L316.973 168.373" stroke="#99BD35" stroke-width="12" stroke-linecap="round"/>
<circle cx="206.339" cy="213.758" r="26.4689" transform="rotate(-147.602 206.339 213.758)" fill="#AED63C"/>
</svg>
