<svg width="1317" height="1318" viewBox="0 0 1317 1318" fill="none" xmlns="http://www.w3.org/2000/svg">
<path fill-rule="evenodd" clip-rule="evenodd" d="M664.424 1117.33C860.169 1089.16 1013.39 944.826 1057.55 752.058C1106.25 539.459 1069.16 291.992 877.252 188.351C729.137 108.361 568.122 174.006 430.574 276.726L583.368 597.284C585.932 602.664 579.933 608.087 574.838 604.995L270.64 420.354C145.617 554.195 53.0072 721.43 125.457 886.22C212.436 1084.06 450.515 1148.12 664.424 1117.33Z" fill="#7FD63C"/>
<path d="M653.924 679.482L346.803 623.832" stroke="#71BD35" stroke-width="12" stroke-linecap="round"/>
<path d="M653.924 679.482L506.093 954.375" stroke="#71BD35" stroke-width="12" stroke-linecap="round"/>
<path d="M653.924 679.482L869.681 905.025" stroke="#71BD35" stroke-width="12" stroke-linecap="round"/>
<path d="M653.924 679.482L935.101 543.981" stroke="#71BD35" stroke-width="12" stroke-linecap="round"/>
<path d="M653.924 679.482L611.944 370.195" stroke="#71BD35" stroke-width="12" stroke-linecap="round"/>
<circle cx="653.209" cy="678.467" r="54.2677" transform="rotate(136.334 653.209 678.467)" fill="#7FD63C"/>
</svg>
