<svg width="464" height="462" viewBox="0 0 464 462" fill="none" xmlns="http://www.w3.org/2000/svg">
<path fill-rule="evenodd" clip-rule="evenodd" d="M214.849 45.0864C152.484 53.5852 120.678 116.647 108.016 178.276C93.7219 247.845 87.558 330.596 148.781 366.646C216.008 406.232 303.614 382.012 356.229 324.433C393.905 283.202 385.632 225.763 364.155 173.361L288.712 197.428C282.423 199.435 277.107 192.419 280.74 186.907L330.913 110.787C302.724 69.9212 263.544 38.4503 214.849 45.0864Z" fill="#88C63A"/>
<path d="M232.93 222.973L337.104 244.861" stroke="#77AD33" stroke-width="12" stroke-linecap="round"/>
<path d="M232.93 222.973L277.27 119.534" stroke="#77AD33" stroke-width="12" stroke-linecap="round"/>
<path d="M232.93 222.973L156.159 137.156" stroke="#77AD33" stroke-width="12" stroke-linecap="round"/>
<path d="M232.93 222.973L141.143 273.373" stroke="#77AD33" stroke-width="12" stroke-linecap="round"/>
<path d="M232.93 222.973L252.973 339.939" stroke="#77AD33" stroke-width="12" stroke-linecap="round"/>
<circle cx="232.996" cy="225.878" r="20.7296" transform="rotate(-44.9848 232.996 225.878)" fill="#88C63A"/>
</svg>
