<svg width="3840" height="473" viewBox="0 0 3840 473" fill="none" xmlns="http://www.w3.org/2000/svg">
<path fill-rule="evenodd" clip-rule="evenodd" d="M-3.05176e-05 0L105.6 44.2593C214.4 88.5185 425.6 177.037 640 230.148C854.4 283.259 1065.6 300.963 1280 300.963C1494.4 300.963 1705.6 283.259 1920 292.111C2134.4 300.963 2345.6 336.37 2560 318.667C2774.4 300.963 2985.6 230.148 3200 203.593C3414.4 177.037 3625.6 194.741 3734.4 203.593L3840 212.444V478H3734.4C3625.6 478 3414.4 478 3200 478C2985.6 478 2774.4 478 2560 478C2345.6 478 2134.4 478 1920 478C1705.6 478 1494.4 478 1280 478C1065.6 478 854.4 478 640 478C425.6 478 214.4 478 105.6 478H-3.05176e-05V0Z" fill="#5ED1EB" fill-opacity="0.5"/>
<path fill-rule="evenodd" clip-rule="evenodd" d="M3840 248.318L3712 243.637C3584 238.957 3328 229.595 3072 234.276C2816 238.957 2560 257.68 2304 295.127C2048 332.574 1792 388.744 1536 384.064C1280 379.383 1024 313.85 768 304.489C512 295.127 256 341.936 128 365.34L0 388.744V473H128C256 473 512 473 768 473C1024 473 1280 473 1536 473C1792 473 2048 473 2304 473C2560 473 2816 473 3072 473C3328 473 3584 473 3712 473H3840V248.318Z" fill="#5ED1EB" fill-opacity="0.5"/>
</svg>
