<svg width="3840" height="290" viewBox="0 0 3840 290" fill="none" xmlns="http://www.w3.org/2000/svg">
<path fill-rule="evenodd" clip-rule="evenodd" d="M0 290L160 248C320 206 640 122 960 104C1280 86 1600 134 1920 134C2240 134 2560 86 2880 80C3200 74 3520 110 3680 128L3840 146V2H3680C3520 2 3200 2 2880 2C2560 2 2240 2 1920 2C1600 2 1280 2 960 2C640 2 320 2 160 2H0V290Z" fill="#5ED1EB" fill-opacity="0.5"/>
<path fill-rule="evenodd" clip-rule="evenodd" d="M0 108.029L160 132.035C320 156.041 640 204.054 960 186.049C1280 168.045 1600 84.0224 1920 66.0176C2240 48.0128 2560 96.0255 2880 108.029C3200 120.032 3520 96.0255 3680 84.0224L3840 72.0192V0H3680C3520 0 3200 0 2880 0C2560 0 2240 0 1920 0C1600 0 1280 0 960 0C640 0 320 0 160 0H0V108.029Z" fill="#5ED1EB" fill-opacity="0.5"/>
</svg>
