<svg width="1216" height="1233" viewBox="0 0 1216 1233" fill="none" xmlns="http://www.w3.org/2000/svg">
<ellipse cx="895.09" cy="306.32" rx="85.8654" ry="93.3976" transform="rotate(-137.115 895.09 306.32)" fill="#F6E130"/>
<ellipse cx="839.244" cy="600.966" rx="124.805" ry="216.225" transform="rotate(-157.115 839.244 600.966)" fill="#E99324"/>
<ellipse rx="124.805" ry="216.225" transform="matrix(0.455777 0.890094 0.890094 -0.455777 606.469 384.77)" fill="#E99324"/>
<ellipse cx="679.846" cy="539.178" rx="252.324" ry="348.734" transform="rotate(-137.115 679.846 539.178)" fill="#FECD07"/>
<ellipse cx="698.03" cy="390.88" rx="117.828" ry="170.197" transform="rotate(-127.115 698.03 390.88)" fill="#FFD423"/>
<ellipse cx="855.89" cy="565.502" rx="69.757" ry="146.972" transform="rotate(-152.115 855.89 565.502)" fill="#FFD426"/>
<path d="M151.362 713.466C227.312 711.86 328.367 669.413 369.401 648.39L403.846 748.47L110.703 849.362C92.6102 804.733 75.4126 715.072 151.362 713.466Z" fill="#EC6726"/>
<path d="M225.033 928.114C285.848 882.591 391.6 853.773 436.874 845.054L402.353 745L109.287 846.115C122.529 892.416 164.217 973.637 225.033 928.114Z" fill="#EC6726"/>
<ellipse cx="471.75" cy="725.896" rx="167.965" ry="181.523" transform="rotate(-108.992 471.75 725.896)" fill="#FBE12A"/>
<ellipse cx="388.176" cy="753.863" rx="63.2693" ry="63.2693" transform="rotate(-108.992 388.176 753.863)" fill="#F9E850"/>
<ellipse rx="18.7218" ry="40.3223" transform="matrix(0.677922 0.735134 0.735134 -0.677922 365.418 648.368)" fill="#5B5B5B"/>
<ellipse cx="435.033" cy="850.634" rx="18.7218" ry="40.3223" transform="rotate(-85.3027 435.033 850.634)" fill="#5B5B5B"/>
</svg>
