<svg width="529" height="500" viewBox="0 0 529 500" fill="none" xmlns="http://www.w3.org/2000/svg">
<path d="M104.343 403.683L149.516 391.558C142.786 366.482 149.563 356.192 169.922 336.366C190.281 316.539 199.11 296.124 191.734 268.643C181.039 228.794 139.625 211.185 92.0567 223.953C30.4574 240.486 10.4187 287.478 23.3269 335.571L81.504 319.956C74.5889 294.192 81.4175 277.261 102.977 271.474C122.141 266.33 131.067 274.982 133.926 285.631C137.798 300.059 133.206 307.552 118.072 326.345C94.6996 355.451 92.9104 361.087 104.343 403.683ZM108.824 432.678L122.838 484.893L174.856 470.931L160.841 418.717L108.824 432.678Z" fill="#0099BB"/>
<path d="M217.678 225.32L274.168 220.69C271.598 189.331 281.914 178.539 310.498 159.33C339.081 140.121 354.046 117.704 351.23 83.338C347.145 33.507 301.604 3.5075 242.119 8.38291C165.088 14.6964 130.979 66.3603 135.908 126.501L208.659 120.538C206.019 88.3201 217.842 69.6201 244.803 67.4104C268.768 65.4462 277.527 77.7022 278.619 91.0191C280.097 109.061 272.993 116.995 250.864 136.108C216.671 165.723 213.312 172.053 217.678 225.32ZM216.714 260.861L222.065 326.157L287.114 320.826L281.762 255.53L216.714 260.861Z" fill="#0099BB"/>
<path d="M364.394 332.419L417.432 340.109C421.701 310.666 433.493 302.904 463.901 291.252C494.308 279.6 512.844 262.109 517.522 229.843C524.306 183.056 488.687 145.77 432.836 137.672C360.511 127.185 318.142 167.577 309.954 224.043L378.261 233.947C382.647 203.697 397.501 188.967 422.815 192.637C445.316 195.9 450.794 209.048 448.981 221.552C446.525 238.492 438.298 244.3 413.86 257.229C376.08 277.283 371.645 282.406 364.394 332.419ZM355.982 364.968L347.093 426.275L408.168 435.13L417.057 373.823L355.982 364.968Z" fill="#0099BB"/>
</svg>
