<svg width="5045" height="4784" viewBox="0 0 5045 4784" fill="none" xmlns="http://www.w3.org/2000/svg">
<path fill-rule="evenodd" clip-rule="evenodd" d="M3082.79 908.533C3515.3 1164.05 4011.85 1354.41 4215.06 1813.84C4441.01 2324.67 4525.96 2974.87 4196.15 3425.71C3881.19 3856.25 3248.62 3795.36 2719 3858.91C2314.63 3907.43 1908.47 3935.48 1549.41 3743.3C1188.76 3550.27 928.263 3219.86 799.57 2831.56C666.533 2430.15 706.694 2012.26 843.027 1611.94C1015.27 1106.2 1150.49 464.572 1660.19 304.495C2171.17 144.021 2621.69 636.126 3082.79 908.533Z" fill="#29BEDF" fill-opacity="0.2"/>
<path fill-rule="evenodd" clip-rule="evenodd" d="M3227.63 3271.95C2966.93 3421.89 2669.64 3410.63 2369.11 3399.19C2031.62 3386.34 1639.52 3454.76 1414.42 3202.94C1185.01 2946.29 1266.43 2556.38 1310.6 2215C1353.62 1882.52 1383.21 1503.01 1659.02 1312.45C1926.96 1127.33 2273.3 1313.88 2598.79 1324.98C2977.05 1337.88 3406.79 1130.05 3689.52 1381.69C3986.5 1646.02 4018.64 2118.55 3924.27 2504.73C3839.03 2853.59 3538.91 3092.91 3227.63 3271.95Z" fill="#29BEDF" fill-opacity="0.2"/>
<path fill-rule="evenodd" clip-rule="evenodd" d="M2526.91 1536.07C2714.43 1558.25 2868.9 1672.43 2997.59 1810.57C3120.62 1942.64 3193.13 2102.77 3220.95 2281.09C3255.48 2502.38 3332.74 2769.96 3171.57 2925.53C3010.74 3080.77 2750.47 2952.8 2526.91 2951.01C2306.74 2949.25 2073.4 3040.78 1892.51 2915.28C1688.78 2773.93 1553.78 2528.88 1561.31 2281.09C1568.69 2038.15 1737.44 1832.78 1929.91 1684.28C2098.65 1554.09 2315.23 1511.04 2526.91 1536.07Z" fill="#29BEDF" fill-opacity="0.2"/>
<path fill-rule="evenodd" clip-rule="evenodd" d="M2422.72 1732.34C2535.59 1740.59 2629.61 1802.29 2716.73 1874.53C2816.68 1957.39 2944.5 2038.84 2948.9 2168.6C2953.35 2299.93 2821.57 2382.45 2737.36 2483.31C2638.4 2601.84 2576.27 2782.7 2422.72 2798.83C2265.06 2815.39 2124.31 2687.65 2034.24 2557.16C1957.21 2445.57 1978.77 2303.91 1987.71 2168.6C1995.77 2046.43 1995.91 1914.87 2082.35 1828.17C2168.88 1741.4 2300.52 1723.41 2422.72 1732.34Z" fill="#29BEDF" fill-opacity="0.4"/>
</svg>
